<svg width="96" height="61" viewBox="0 0 96 61" fill="none" xmlns="http://www.w3.org/2000/svg">
<path fill-rule="evenodd" clip-rule="evenodd" d="M0 29.6714L29.7095 0.0379611L30.4056 11.9937L15.1582 27.2411L6.36396 36.0353L0 29.6714Z" fill="white"/>
<path fill-rule="evenodd" clip-rule="evenodd" d="M0 30.364L29.7095 59.9974L30.4056 48.0417L15.1582 32.7943L6.36396 24.0001L0 30.364Z" fill="white"/>
<path fill-rule="evenodd" clip-rule="evenodd" d="M96 29.6714L66.2905 0.0379611L65.5944 11.9937L80.8418 27.2411L89.636 36.0353L96 29.6714Z" fill="white"/>
<path fill-rule="evenodd" clip-rule="evenodd" d="M96 30.364L66.2905 59.9974L65.5944 48.0417L80.8418 32.7943L89.636 24.0001L96 30.364Z" fill="white"/>
<path fill-rule="evenodd" clip-rule="evenodd" d="M54.2106 17.7894L66.236 18.236L42.1898 42.5382L30.4012 42.0887L54.2106 17.7894Z" fill="white"/>
</svg>
