<svg width="360" height="360" viewBox="0 0 360 360" fill="none" xmlns="http://www.w3.org/2000/svg">
<rect x="5" y="5" width="350" height="350" stroke="white" stroke-width="10"/>
<path d="M92.4675 127V78.4H99.2475V122.14H111.668V127H92.4675ZM127.315 127V78.4H146.155V83.44H134.095V99.52H143.875V104.32H134.095V122.14H146.275V127H127.315ZM160.109 127L170.429 78.4H176.969L187.349 127H180.929L178.709 114.76H168.809L166.469 127H160.109ZM169.709 109.9H177.809L173.729 88L169.709 109.9ZM203.28 127V78.4H213.06C216.3 78.4 218.98 78.84 221.1 79.72C223.22 80.56 224.78 81.94 225.78 83.86C226.82 85.74 227.34 88.22 227.34 91.3C227.34 93.18 227.14 94.9 226.74 96.46C226.34 97.98 225.7 99.28 224.82 100.36C223.94 101.4 222.78 102.16 221.34 102.64L228.24 127H221.7L215.34 104.2H210.06V127H203.28ZM210.06 99.34H212.64C214.56 99.34 216.12 99.1 217.32 98.62C218.52 98.14 219.4 97.32 219.96 96.16C220.52 95 220.8 93.38 220.8 91.3C220.8 88.46 220.28 86.42 219.24 85.18C218.2 83.9 216.14 83.26 213.06 83.26H210.06V99.34ZM245.393 127V78.4H250.013L263.813 110.68V78.4H269.453V127H265.133L251.153 93.82V127H245.393ZM95.573 207V158.4H106.733C108.933 158.4 110.833 158.64 112.433 159.12C114.073 159.6 115.433 160.34 116.513 161.34C117.593 162.34 118.393 163.62 118.913 165.18C119.433 166.7 119.693 168.5 119.693 170.58C119.693 172.58 119.433 174.32 118.913 175.8C118.433 177.24 117.673 178.38 116.633 179.22C115.633 180.06 114.333 180.6 112.733 180.84C114.693 181.28 116.273 182.04 117.473 183.12C118.673 184.16 119.553 185.52 120.113 187.2C120.713 188.84 121.013 190.82 121.013 193.14C121.013 195.22 120.773 197.12 120.293 198.84C119.813 200.56 119.053 202.02 118.013 203.22C117.013 204.42 115.713 205.36 114.113 206.04C112.553 206.68 110.693 207 108.533 207H95.573ZM102.353 202.14H106.913C109.953 202.14 111.973 201.44 112.973 200.04C114.013 198.6 114.533 196.3 114.533 193.14C114.533 191.1 114.253 189.4 113.693 188.04C113.173 186.64 112.313 185.6 111.113 184.92C109.953 184.2 108.373 183.84 106.373 183.84H102.353V202.14ZM102.353 178.68H106.373C108.293 178.68 109.793 178.42 110.873 177.9C111.953 177.34 112.713 176.46 113.153 175.26C113.593 174.06 113.813 172.5 113.813 170.58C113.813 168.34 113.473 166.72 112.793 165.72C112.113 164.72 111.053 164.1 109.613 163.86C108.173 163.58 106.293 163.44 103.973 163.44H102.353V178.68ZM150.578 207.54C147.058 207.54 144.358 206.84 142.478 205.44C140.598 204.04 139.318 202.08 138.638 199.56C137.958 197 137.618 194.02 137.618 190.62V158.4H144.098V190.92C144.098 193 144.238 194.9 144.518 196.62C144.798 198.34 145.398 199.7 146.318 200.7C147.278 201.7 148.698 202.2 150.578 202.2C152.498 202.2 153.918 201.7 154.838 200.7C155.758 199.7 156.358 198.34 156.638 196.62C156.918 194.9 157.058 193 157.058 190.92V158.4H163.478V190.62C163.478 194.02 163.138 197 162.458 199.56C161.778 202.08 160.498 204.04 158.618 205.44C156.778 206.84 154.098 207.54 150.578 207.54ZM181.976 207V158.4H188.636V207H181.976ZM207.499 207V158.4H214.279V202.14H226.699V207H207.499ZM242.346 207V158.4H252.906C256.506 158.4 259.346 158.96 261.426 160.08C263.546 161.16 265.046 162.8 265.926 165C266.846 167.2 267.306 169.94 267.306 173.22V191.1C267.306 194.54 266.846 197.44 265.926 199.8C265.046 202.16 263.586 203.96 261.546 205.2C259.546 206.4 256.846 207 253.446 207H242.346ZM249.126 202.14H252.966C255.446 202.14 257.206 201.66 258.246 200.7C259.286 199.74 259.906 198.34 260.106 196.5C260.346 194.66 260.466 192.44 260.466 189.84V174.06C260.466 171.54 260.306 169.5 259.986 167.94C259.666 166.38 258.966 165.24 257.886 164.52C256.806 163.8 255.106 163.44 252.786 163.44H249.126V202.14ZM96.6356 287V243.44H88.4156V238.4H111.396V243.44H103.416V287H96.6356ZM127.081 287V238.4H145.921V243.44H133.861V259.52H143.641V264.32H133.861V282.14H146.041V287H127.081ZM159.874 287L170.194 238.4H176.734L187.114 287H180.694L178.474 274.76H168.574L166.234 287H159.874ZM169.474 269.9H177.574L173.494 248L169.474 269.9ZM214.933 287.54C211.493 287.54 208.813 286.82 206.893 285.38C205.013 283.94 203.693 282 202.933 279.56C202.213 277.12 201.853 274.4 201.853 271.4V254.24C201.853 250.96 202.213 248.1 202.933 245.66C203.693 243.22 205.013 241.34 206.893 240.02C208.813 238.66 211.493 237.98 214.933 237.98C217.973 237.98 220.373 238.54 222.133 239.66C223.933 240.78 225.213 242.38 225.973 244.46C226.773 246.54 227.173 249.04 227.173 251.96V255.8H220.753V252.38C220.753 250.58 220.653 249 220.453 247.64C220.293 246.24 219.813 245.16 219.013 244.4C218.213 243.64 216.873 243.26 214.993 243.26C213.073 243.26 211.673 243.68 210.793 244.52C209.913 245.32 209.333 246.48 209.053 248C208.813 249.48 208.693 251.22 208.693 253.22V272.48C208.693 274.92 208.893 276.86 209.293 278.3C209.693 279.7 210.353 280.7 211.273 281.3C212.193 281.9 213.433 282.2 214.993 282.2C216.833 282.2 218.153 281.8 218.953 281C219.753 280.16 220.253 279.02 220.453 277.58C220.653 276.14 220.753 274.46 220.753 272.54V268.94H227.173V272.54C227.173 275.5 226.813 278.12 226.093 280.4C225.373 282.64 224.133 284.4 222.373 285.68C220.613 286.92 218.133 287.54 214.933 287.54ZM244.632 287V238.4H251.412V259.4H263.892V238.4H270.672V287H263.892V264.26H251.412V287H244.632Z" fill="#FAFAFA"/>
</svg>
