<?xml version="1.0" encoding="UTF-8"?>
<svg width="84px" height="82px" viewBox="0 0 84 82" version="1.1" xmlns="http://www.w3.org/2000/svg" xmlns:xlink="http://www.w3.org/1999/xlink">
    <!-- Generator: Sketch 52.6 (67491) - http://www.bohemiancoding.com/sketch -->
    <title>Book</title>
    <desc>Created with Sketch.</desc>
    <g id="Website" stroke="none" stroke-width="1" fill="none" fill-rule="evenodd">
        <g id="Desktop" transform="translate(-175.000000, -161.000000)" stroke="#2A2F38" stroke-width="3">
            <g id="Book" transform="translate(177.000000, 161.000000)">
                <path d="M38.5,74.7013493 L38.5,14.5384336 C32.9962262,13.0885097 27.4971937,12.3641975 22,12.3641975 C16.5028063,12.3641975 11.0037738,13.0885097 5.5,14.5384336 L5.5,74.7013493 C10.9975187,73.457671 16.4981517,72.8354552 22,72.8354552 C27.5018483,72.8354552 33.0024813,73.457671 38.5,74.7013493 Z" id="Path"></path>
                <path d="M66.6210227,12.7398644 L42.4358472,74.4956465 C47.6217543,73.389063 52.8103366,72.8354552 58,72.8354552 C63.5018483,72.8354552 69.0024813,73.457671 74.5,74.7013493 L74.5,14.5111762 C72.5081656,13.8940864 70.193713,13.0658006 70.3703334,13.1185791 C69.5281762,12.8669221 68.6348163,12.7631802 66.6210227,12.7398644 Z" id="Path"></path>
                <path d="M40.5,14.3460767 L40.5,68.7341346 L66.5,56.33737 L66.5,2.34449358 L40.5,14.3460767 Z" id="Rectangle"></path>
                <rect id="Rectangle" x="40.5" y="74.5864198" width="1" height="3.91358025"></rect>
                <rect id="Rectangle" x="12.5" y="29.154321" width="19" height="1" rx="0.5"></rect>
                <rect id="Rectangle" x="12.5" y="38.0432099" width="19" height="1" rx="0.5"></rect>
                <rect id="Rectangle" x="12.5" y="46.9320988" width="19" height="1" rx="0.5"></rect>
                <rect id="Rectangle" x="12.5" y="55.8209877" width="19" height="1" rx="0.5"></rect>
                <path d="M46.0214799,26.1513887 L60.9786676,26.2243175 L60.9810008,26.6992028 C60.9799308,26.4814211 61.1182573,26.2954757 61.3122303,26.2259439 L61.473791,26.2267316 C61.4334261,26.2265348 61.3941932,26.2215577 61.3566294,26.2123374 C61.3956235,26.2023573 61.4364611,26.196959 61.4785382,26.1967522 L61.4834327,26.1967521 L61.302897,26.1958719 C61.1129107,26.1256574 60.9772872,25.943363 60.9762349,25.7291941 L60.9785201,26.1942903 L46.0213324,26.1213615 L46.0189992,25.6464762 C46.0200692,25.8642579 45.8817427,26.0502033 45.6877697,26.1197352 L45.526209,26.1189474 C45.5665739,26.1191442 45.6058068,26.1241213 45.6433706,26.1333417 C45.6043765,26.1433217 45.5635389,26.14872 45.5214618,26.1489268 L45.5165673,26.1489269 L45.697103,26.1498071 C45.8870893,26.2200216 46.0227128,26.402316 46.0237651,26.6164849 L46.0214799,26.1513887 Z" id="Rectangle" transform="translate(53.500000, 26.172840) rotate(-26.000000) translate(-53.500000, -26.172840) "></path>
                <path d="M46.0214799,35.0402776 L60.9786676,35.1132064 L60.9810008,35.5880917 C60.9799308,35.37031 61.1182573,35.1843646 61.3122303,35.1148327 L61.473791,35.1156205 C61.4334261,35.1154237 61.3941932,35.1104466 61.3566294,35.1012262 C61.3956235,35.0912462 61.4364611,35.0858479 61.4785382,35.0856411 L61.4834327,35.085641 L61.302897,35.0847608 C61.1129107,35.0145463 60.9772872,34.8322519 60.9762349,34.618083 L60.9785201,35.0831792 L46.0213324,35.0102504 L46.0189992,34.5353651 C46.0200692,34.7531468 45.8817427,34.9390922 45.6877697,35.008624 L45.526209,35.0078363 C45.5665739,35.0080331 45.6058068,35.0130102 45.6433706,35.0222305 C45.6043765,35.0322106 45.5635389,35.0376089 45.5214618,35.0378157 L45.5165673,35.0378158 L45.697103,35.038696 C45.8870893,35.1089105 46.0227128,35.2912049 46.0237651,35.5053738 L46.0214799,35.0402776 Z" id="Rectangle" transform="translate(53.500000, 35.061728) rotate(-26.000000) translate(-53.500000, -35.061728) "></path>
                <path d="M46.0214799,43.9291665 L60.9786676,44.0020952 L60.9810008,44.4769806 C60.9799308,44.2591988 61.1182573,44.0732535 61.3122303,44.0037216 L61.473791,44.0045094 C61.4334261,44.0043126 61.3941932,43.9993355 61.3566294,43.9901151 C61.3956235,43.9801351 61.4364611,43.9747368 61.4785382,43.97453 L61.4834327,43.9745299 L61.302897,43.9736497 C61.1129107,43.9034352 60.9772872,43.7211408 60.9762349,43.5069719 L60.9785201,43.9720681 L46.0213324,43.8991393 L46.0189992,43.424254 C46.0200692,43.6420357 45.8817427,43.8279811 45.6877697,43.8975129 L45.526209,43.8967252 C45.5665739,43.896922 45.6058068,43.9018991 45.6433706,43.9111194 C45.6043765,43.9210994 45.5635389,43.9264978 45.5214618,43.9267046 L45.5165673,43.9267046 L45.697103,43.9275849 C45.8870893,43.9977994 46.0227128,44.1800937 46.0237651,44.3942626 L46.0214799,43.9291665 Z" id="Rectangle" transform="translate(53.500000, 43.950617) rotate(-26.000000) translate(-53.500000, -43.950617) "></path>
                <path d="M46.0214799,52.8180554 L60.9786676,52.8909841 L60.9810008,53.3658695 C60.9799308,53.1480877 61.1182573,52.9621424 61.3122303,52.8926105 L61.473791,52.8933983 C61.4334261,52.8932015 61.3941932,52.8882244 61.3566294,52.879004 C61.3956235,52.869024 61.4364611,52.8636256 61.4785382,52.8634189 L61.4834327,52.8634188 L61.302897,52.8625385 C61.1129107,52.7923241 60.9772872,52.6100297 60.9762349,52.3958608 L60.9785201,52.8609569 L46.0213324,52.7880282 L46.0189992,52.3131429 C46.0200692,52.5309246 45.8817427,52.71687 45.6877697,52.7864018 L45.526209,52.7856141 C45.5665739,52.7858109 45.6058068,52.790788 45.6433706,52.8000083 C45.6043765,52.8099883 45.5635389,52.8153867 45.5214618,52.8155934 L45.5165673,52.8155935 L45.697103,52.8164738 C45.8870893,52.8866883 46.0227128,53.0689826 46.0237651,53.2831515 L46.0214799,52.8180554 Z" id="Rectangle" transform="translate(53.500000, 52.839506) rotate(-26.000000) translate(-53.500000, -52.839506) "></path>
                <path d="M80,21.7283951 L80,78.2861293 C80,79.2326739 79.4223029,80 78.7096774,80 L1.29032258,80 C0.577697097,80 0,79.2326739 0,78.2861293 L0,21.7283951" id="Path"></path>
            </g>
        </g>
    </g>
</svg>