<?xml version="1.0" encoding="UTF-8"?>
<svg width="80px" height="79px" viewBox="0 0 80 79" version="1.1" xmlns="http://www.w3.org/2000/svg" xmlns:xlink="http://www.w3.org/1999/xlink">
    <!-- Generator: Sketch 52.6 (67491) - http://www.bohemiancoding.com/sketch -->
    <title>Group</title>
    <desc>Created with Sketch.</desc>
    <g id="Website" stroke="none" stroke-width="1" fill="none" fill-rule="evenodd">
        <g id="Desktop" transform="translate(-732.000000, -162.000000)">
            <g id="Group" transform="translate(732.000000, 161.000000)">
                <rect id="Rectangle" stroke="#2B2B2B" stroke-width="2.79069767" x="5.79095323" y="66.5116279" width="69.2972144" height="12.0930233" rx="1.86046512"></rect>
                <rect id="Rectangle" stroke="#2B2B2B" stroke-width="2.79069767" x="1.39534884" y="51.627907" width="69.2972144" height="12.0930233" rx="1.86046512"></rect>
                <rect id="Rectangle" stroke="#2B2B2B" stroke-width="2.79069767" x="9.30743675" y="36.744186" width="69.2972144" height="12.0930233" rx="1.86046512"></rect>
                <rect id="Rectangle" fill="#2A2F38" x="14.0659341" y="37.2093023" width="2.63736264" height="12.0930233"></rect>
                <rect id="Rectangle" fill="#2A2F38" x="7.91208791" y="52.0930233" width="2.63736264" height="12.0930233"></rect>
                <rect id="Rectangle" fill="#2A2F38" x="29.010989" y="52.0930233" width="2.63736264" height="12.0930233"></rect>
                <rect id="Rectangle" fill="#2A2F38" x="14.0659341" y="66.0465116" width="2.63736264" height="12.0930233"></rect>
                <rect id="Rectangle" fill="#2A2F38" x="18.4615385" y="66.0465116" width="2.63736264" height="12.0930233"></rect>
                <rect id="Rectangle" fill="#2A2F38" x="22.8571429" y="66.0465116" width="2.63736264" height="12.0930233"></rect>
                <rect id="Rectangle" fill="#2A2F38" x="50.1098901" y="36.2790698" width="2.63736264" height="12.0930233"></rect>
                <rect id="Rectangle" fill="#2A2F38" x="65.0549451" y="36.2790698" width="2.63736264" height="12.0930233"></rect>
                <rect id="Rectangle" fill="#2A2F38" x="15.8241758" y="54.8837209" width="2.63736264" height="5.58139535" rx="1.31868132"></rect>
                <rect id="Rectangle" fill="#2A2F38" x="21.0989011" y="54.8837209" width="2.63736264" height="5.58139535" rx="1.31868132"></rect>
                <path d="M53.6774853,53.0232558 L53.6774853,72.654925 L56.5317926,70.7018408 C57.1651675,70.2684486 57.9996677,70.2684486 58.6330425,70.7018408 L61.4873499,72.654925 L61.4873499,53.0232558 L53.6774853,53.0232558 Z" id="Rectangle" stroke="#2A2F38" stroke-width="1.86046512" fill="#D8D8D8"></path>
                <path d="M44.6535515,13.690101 L43.8877667,14.4645503 L42.9505482,13.9097354 C41.318563,12.9436324 39.4334928,12.4978431 37.8139404,12.6477735 C34.3896014,12.9647825 31.7122282,18.1415559 32.2283152,24.3834164 C32.9178964,32.7236192 34.1747155,34.8837209 39.7540674,34.8837209 C40.9404371,34.8837209 41.9684281,34.6444032 42.8570174,34.1862078 L43.5340157,33.8371178 L44.1937925,34.2177557 C44.9442233,34.6506935 45.9296881,34.8837209 47.193295,34.8837209 C53.5725135,34.8837209 54.2566387,34.1416527 54.9013292,27.7589791 C54.8720077,28.0492724 55.1465348,25.2506938 55.2389619,24.3944602 C56.0486343,16.8937509 53.9359111,12.9493024 50.0397234,12.4430972 C47.5732682,12.1226475 45.8266768,12.5037023 44.6535515,13.690101 Z" id="Combined-Shape" stroke="#2A2F38" stroke-width="2.79069767"></path>
                <path d="M42.1129004,3.93049717 L42.9068269,3.91576232 C43.4204917,3.90622898 43.8446276,4.31490827 43.8541609,4.82857307 C43.8543699,4.83983615 43.8543744,4.8511021 43.8541742,4.86236534 L43.7065605,13.1677557 C43.6976646,13.6682816 43.2942552,14.0720081 42.7937365,14.0812975 L41.99981,14.0960323 C41.4861452,14.1055657 41.0620093,13.6968864 41.052476,13.1832216 C41.0522669,13.1719585 41.0522625,13.1606926 41.0524627,13.1494293 L41.2000763,4.84403893 C41.2089723,4.34351305 41.6123816,3.93978653 42.1129004,3.93049717 Z" id="Rectangle-Copy" fill="#2A2F38" transform="translate(42.453318, 9.005897) rotate(-20.000000) translate(-42.453318, -9.005897) "></path>
                <ellipse id="Oval" stroke="#2A2F38" stroke-width="2.79069767" transform="translate(47.723008, 7.017647) rotate(42.000000) translate(-47.723008, -7.017647) " cx="47.7230076" cy="7.01764735" rx="1.76676846" ry="4.95672327"></ellipse>
            </g>
        </g>
    </g>
</svg>